<?xml version="1.0" encoding="utf-8"?>
<!-- Generator: Adobe Illustrator 21.1.0, SVG Export Plug-In . SVG Version: 6.00 Build 0)  -->
<svg version="1.1" id="Layer_1" xmlns="http://www.w3.org/2000/svg" xmlns:xlink="http://www.w3.org/1999/xlink" x="0px" y="0px"
	 width="327px" height="107px" viewBox="0 0 327 107" style="enable-background:new 0 0 327 107;" xml:space="preserve">
<style type="text/css">
	.st0{fill:#FFFFFF;}
	.st1{fill:#4D4D4F;}
	.st2{fill:#AEBF3B;}
	.st3{fill:#E11B22;}
	.st4{fill:#A9B240;}
</style>
<g>
	<g>
		<g>
			<path class="st0" d="M83.7,78.2V4.9h215.8C311.9,4.9,322,15,322,27.5v50.7H83.7z"/>
			<path class="st1" d="M299.5,6.2c11.7,0,21.2,9.5,21.2,21.2v49.3H85V6.2H299.5 M299.5,3.6H82.3v75.9h241v-52
				C323.4,14.3,312.7,3.6,299.5,3.6L299.5,3.6z"/>
		</g>
		<path class="st1" d="M90.4,79.5l-31.3,0h-30c-14.1,0-25.6-10.7-25.6-23.9v-52h86.8V79.5z"/>
		<g>
			<g>
				<g>
					<path class="st0" d="M32.5,31.9c0-5.8,4-10.6,9.4-11.8l0,0c1.2-0.3,2.4,0.5,2.7,1.7l0,0c0.3,1.2-0.5,2.4-1.7,2.7l0,0
						c-3.4,0.8-5.9,3.8-5.9,7.4l0,0c0,4.2,3.4,7.5,7.5,7.6l0,0c3.6,0,6.6-2.5,7.3-5.8l0,0h0c0.3-1.2,1.5-2,2.7-1.7l0,0
						c1.2,0.3,2,1.5,1.7,2.7l0,0c-1.3,5.3-6,9.3-11.7,9.3l0,0C37.9,44,32.6,38.6,32.5,31.9L32.5,31.9z"/>
					<polygon class="st2" points="52.6,31 52.6,24 47.9,24 45.7,24 45.7,19.5 57.1,19.5 57.1,31 52.6,31 					"/>
					<polygon class="st2" points="58.5,25.2 58.5,18.2 53.7,18.2 51.5,18.2 51.5,13.7 63,13.7 63,25.2 58.5,25.2 					"/>
				</g>
				<g>
					<path class="st2" d="M77.2,66.8c0-0.2,0-0.4-0.1-0.6l-1.8-7.3l0,0l0,0l-1.7-7c0-0.1-0.1-0.5-0.3-1c-0.2-0.6-0.4-1.3-0.9-2.1
						c-0.3-0.5-0.7-1.1-1.5-1.6c-0.3-0.2-1-0.5-1.8-0.5c-0.5,0-1,0.1-1.4,0.4c-0.3,0.2-0.6,0.4-0.7,0.5c-0.4,0.4-0.6,0.7-0.7,0.9
						c-0.4,0.7-0.7,1.4-1,2c-0.5,1.1-1,2.6-1.6,4.4l-0.1,0.3l0,0.1l0-0.1L63.5,55c-0.6-1.8-1.1-3.3-1.6-4.4c-0.3-0.7-0.6-1.4-1-2
						c-0.2-0.3-0.4-0.6-0.7-0.9c-0.2-0.2-0.4-0.3-0.7-0.5c-0.4-0.2-0.9-0.4-1.4-0.4c-0.8,0-1.5,0.3-1.8,0.5
						c-0.8,0.5-1.2,1.1-1.5,1.6c-0.4,0.7-0.7,1.4-0.9,2.1c-0.1,0.5-0.2,0.8-0.3,1l-3,12.1l0,0.1l0,0l0,0l-0.1,0
						c-0.8-0.1-1.5-0.3-2-0.6c-1.3-0.6-1.8-1.5-2.1-2.3c0-0.1-0.1-0.2-0.1-0.3l-0.1-0.2l0,0l0,0l0.1,0c2.8-0.5,4.8-2.9,4.8-5.7v-2.4
						c0-3.2-2.6-5.8-5.9-5.8h-6c-3.2,0-5.9,2.6-5.9,5.8v9.2v0l0,0L33.2,62c-0.1,0.1-0.1,0.1-0.2,0.2l-0.1,0.1c-1.2,1.3-2.8,2-4.7,2
						c-3.5,0-6.3-2.8-6.3-6.3c0-3.4,2.8-6.2,6.3-6.2c0.4,0,0.7,0,1.1,0.1c0.2,0,0.3,0,0.5,0c1.2,0,2.3-0.9,2.5-2c0-0.1,0-0.2,0-0.3
						c0-0.1,0-0.2,0-0.3c0-1.2-0.8-2.2-2-2.4c-0.1,0-0.2,0-0.3-0.1c-0.7-0.1-1.2-0.2-1.9-0.2h0c-6.3,0-11.4,5.1-11.4,11.3
						c0,2.4,0.7,4.6,2.1,6.5c1.3,1.9,3.2,3.3,5.4,4.1c1.2,0.5,2.6,0.7,4,0.7c1.9,0,3.7-0.4,5.3-1.3l0.1,0l0,0l0,0l0,0l0,0l0,0
						l0.1,0.1c0.5,0.8,1.3,1.2,2.2,1.2c1.4,0,2.6-1.1,2.6-2.5V52.6c0-0.4,0.3-0.7,0.7-0.7h6c0.4,0,0.7,0.3,0.7,0.7v2.4
						c0,0.4-0.3,0.7-0.7,0.7h-4c-0.2,0-0.3,0-0.4,0.1c-0.1,0.1-0.2,0.3-0.2,0.5c0,0.5,0,3,0.2,4.5c0.2,1.3,0.7,2.8,1.6,4.1
						c0.6,0.9,1.8,2.2,3.7,3.1c1.7,0.8,3.9,1.3,6.2,1.3c0,0,0.1,0,0.1,0c0.1,0,0.2,0,0.2,0c1.2,0,2.2-0.8,2.5-2l2.9-11.9l0.1-0.4
						l0-0.1l0,0.1l0.1,0.3c0.4,1.3,0.9,2.7,1.3,4.1c0.3,1.1,0.7,2.3,1.1,3.6c0.1,0.4,0.2,0.7,0.3,1l0,0l0,0.1c0,0.1,0.1,0.2,0.1,0.3
						l0,0.1c0.4,1.1,1.4,1.8,2.5,1.8c1.1,0,2.2-0.7,2.5-1.8l0-0.1c0-0.1,0.1-0.2,0.1-0.3l0-0.1l0,0c0.1-0.2,0.2-0.5,0.3-0.9
						c0,0,0,0,0-0.1l0,0l0,0c0.4-1.3,0.7-2.5,1.1-3.6c0.2-0.7,0.4-1.4,0.6-2c0.2-0.5,0.3-0.9,0.5-1.4c0.1-0.2,0.1-0.4,0.2-0.6l0-0.1
						l0.1-0.3l0-0.1l0,0.1l0.1,0.4c0,0,0.9,3.9,0.9,3.9l2,8c0.3,1.1,1.3,2,2.5,2c0.2,0,0.4,0,0.6-0.1C76.4,69,77.2,68,77.2,66.8z"/>
				</g>
			</g>
		</g>
		<g>
			<path class="st2" d="M198.4,18.7c4,3.3,4.5,6.2,3.2,7.8c-1.3,1.6-4.2,1.6-8.2-1.7c-4-3.3-6.2-10.3-6.2-10.3
				S194.4,15.4,198.4,18.7z"/>
			<path class="st3" d="M210,30.2c-1,0-2,0.2-2.8,0.6c-0.8,0.4-1.5,0.8-2,1.3c-0.3,0.3-0.6,0.6-0.8,0.9c-2.6-1.9-5.8-3-9.2-3
				c-8.6,0-15.6,7-15.6,15.6c0,8.6,7,15.6,15.6,15.6c3.4,0,6.6-1.1,9.2-3c0.2,0.3,0.5,0.6,0.8,0.9c0.6,0.5,1.2,0.9,2,1.3
				c0.8,0.4,1.8,0.6,2.8,0.6c0,0,0,0,0,0c0,0,0,0,0,0h0.7V30.2H210z M195.2,53.8c-4.5,0-8.2-3.7-8.2-8.2c0-4.5,3.7-8.2,8.2-8.2
				c4.5,0,8.1,3.6,8.2,8v0.4C203.3,50.2,199.6,53.8,195.2,53.8z"/>
			<path class="st3" d="M130.3,30.2c-1,0-2,0.2-2.8,0.6c-0.8,0.4-1.5,0.8-2,1.3c-0.3,0.3-0.6,0.6-0.8,0.9c-2.6-1.9-5.8-3-9.2-3
				c-8.6,0-15.6,7-15.6,15.6c0,8.6,7,15.6,15.6,15.6c3.4,0,6.6-1.1,9.2-3c0.2,0.3,0.5,0.6,0.8,0.9c0.6,0.5,1.3,0.9,2,1.3
				c0.8,0.4,1.8,0.6,2.8,0.6c0,0,0,0,0,0c0,0,0,0,0,0h0.7V30.2H130.3z M115.5,53.8c-4.5,0-8.2-3.7-8.2-8.2c0-4.5,3.7-8.2,8.2-8.2
				c4.5,0,8.1,3.6,8.2,8v0.4C123.6,50.2,119.9,53.8,115.5,53.8z"/>
			<path class="st3" d="M176.3,35.3c0-0.6-0.2-1.1-0.5-1.6c-0.3-0.6-0.8-1.1-1.3-1.6c-0.6-0.5-1.2-0.9-2-1.3
				c-0.8-0.4-1.8-0.6-2.8-0.6c0,0,0,0,0,0h-0.1h-0.6V61h0.7c0,0,0,0,0,0c0,0,0,0,0,0c0,0,0,0,0,0c0,0,0,0,0,0c1,0,2-0.2,2.8-0.6
				c0.8-0.4,1.5-0.8,2-1.3c0.5-0.5,1-1,1.3-1.6c0.3-0.5,0.5-1,0.5-1.6V35.3z"/>
			<path class="st3" d="M150,30c-8.6,0-15.6,7-15.6,15.6l0,0v23h0.7c0,0,0,0,0,0c0,0,0,0,0,0c1,0,1.9-0.2,2.8-0.6
				c0.8-0.4,1.5-0.8,2-1.3c0.5-0.5,1-1,1.3-1.6c0.3-0.5,0.5-1,0.5-1.6v-4.7c2.4,1.5,5.2,2.3,8.2,2.3c8.6,0,15.6-7,15.6-15.6
				C165.6,37,158.6,30,150,30z M150,53.8c-4.5,0-8.2-3.7-8.2-8.2c0-4.5,3.7-8.2,8.2-8.2c4.5,0,8.2,3.7,8.2,8.2
				C158.2,50.1,154.5,53.8,150,53.8z"/>
			<path class="st3" d="M240.6,34.5l-1.7-1.7l-6.4-6.2h5.1c0.6,0,1.1-0.2,1.6-0.5c0.6-0.3,1.1-0.8,1.6-1.3c0.5-0.6,0.9-1.2,1.3-2
				c0.4-0.8,0.6-1.8,0.6-2.8c0,0,0,0,0,0v0v-0.3h0l0,0h-0.6h-22.5c0,0-0.1,0-0.2,0c0,0,0,0,0,0H219c0,0-0.1,0-0.2,0
				c-0.5,0-1.2,0.1-1.6,0.8c-0.5,1.1,0.7,2.2,1.2,2.7c1.1,1.1,7.1,6.9,7.5,7.4c-6.8,1.7-11.9,7.8-11.9,15.1
				c0,8.3,6.6,15.2,14.8,15.6c0.3,0,0.5,0,0.8,0c8.3,0,15.2-6.6,15.6-14.8c0-0.3,0-0.5,0-0.8C245.3,41.3,243.5,37.3,240.6,34.5z
				 M221.4,45.6c0-4.5,3.7-8.2,8.2-8.2c4.5,0,8.2,3.7,8.2,8.2c0,4.5-3.7,8.2-8.2,8.2C225.1,53.8,221.4,50.2,221.4,45.6z"/>
			<path class="st3" d="M276.3,30.2c0,0-0.6,0-1.4,0l0,0c-0.5,0-1.1,0-1.6,0c-0.9,0-1.8,0.2-2.7,0.6c-0.8,0.3-1.4,0.8-2,1.3
				c-0.4,0.4-0.8,0.8-1,1.2v0l0,0c-0.2,0.3-0.4,0.8-0.6,1.1c-0.1,0.1-0.1,0.3-0.2,0.4l-0.3,0.5l-6.1,11.3l-6.1-11.3L254,35
				c-0.1-0.1-0.1-0.3-0.2-0.5c-0.2-0.4-0.4-0.8-0.6-1.1l0,0l0,0c-0.3-0.4-0.6-0.8-1-1.2c-0.6-0.5-1.2-0.9-2-1.3
				c-0.9-0.4-1.8-0.5-2.7-0.6c-0.5,0-1.1,0-1.6,0c-0.7,0-1.4,0-1.4,0l-1.8,0l17.7,32.5l17.7-32.5L276.3,30.2z"/>
			<path class="st3" d="M311.1,45.7C311.1,45.7,311.1,45.6,311.1,45.7c0-8.7-7-15.7-15.6-15.7c-3.2,0-6.7,1.3-9.2,3
				c-0.2-0.3-0.5-0.6-0.8-0.9c-0.6-0.5-1.2-0.9-2-1.3c-0.8-0.4-1.8-0.6-2.8-0.6h-0.7v0h0V61h7.4v-4.9c0-0.1,0-0.1,0-0.2V45.2
				c0.2-4.4,3.8-7.8,8.2-7.8c4.5,0,8.1,3.6,8.2,8V61h7.4L311.1,45.7C311.1,45.7,311.1,45.7,311.1,45.7L311.1,45.7z"/>
		</g>
	</g>
	<g>
		<path class="st1" d="M47.6,93.1c0.3,0.3,0.5,0.7,0.5,1.2c0.1,0.5,0.1,0.9,0.1,1.4c0,0.4,0,0.7,0,1c0,0.3-0.1,0.5-0.1,0.8
			C48,97.7,48,97.9,47.9,98c-0.1,0.2-0.2,0.4-0.3,0.5c-0.7,0.9-1.7,1.4-2.9,1.4c-1.3,0-2.2-0.5-2.9-1.5c-0.2-0.3-0.4-0.7-0.5-1.1
			c-0.1-0.4-0.1-1-0.1-1.7c0-0.3,0-0.6,0-0.9c0-0.3,0.1-0.6,0.1-0.9c0.1-0.3,0.2-0.6,0.3-0.8c0.2-0.3,0.4-0.5,0.6-0.8
			c0.3-0.2,0.6-0.4,1-0.6c0.4-0.2,0.9-0.3,1.5-0.3h4.1v1.7H47.6z M46.2,94.7c0-0.2-0.1-0.4-0.2-0.6c-0.1-0.2-0.3-0.4-0.5-0.5
			c-0.2-0.1-0.5-0.2-0.8-0.2c-0.6,0-1,0.2-1.3,0.7c-0.1,0.2-0.2,0.4-0.2,0.7c0,0.2,0,0.6,0,1c0,0.3,0,0.6,0,0.9
			c0,0.3,0.1,0.6,0.3,0.8c0.3,0.4,0.7,0.6,1.2,0.6c0.2,0,0.4,0,0.6-0.1c0.2-0.1,0.3-0.1,0.4-0.2c0.3-0.2,0.4-0.5,0.5-0.9
			c0-0.4,0.1-0.7,0.1-1.1C46.2,95.2,46.2,94.9,46.2,94.7z"/>
		<path class="st1" d="M55.3,99.9l-2.4-3.6l-1.1,1.2v2.4h-2v-8.4h2v3.2l0.1,0l2.9-3.2h2.5l-3,3.3l3.3,5.1H55.3z"/>
		<path class="st1" d="M63,99.6c-0.6,0.2-1.2,0.3-1.8,0.3c-0.5,0-0.9-0.1-1.3-0.2c-0.4-0.1-0.8-0.3-1.1-0.6
			c-0.3-0.2-0.5-0.5-0.7-0.9c-0.2-0.3-0.3-0.7-0.3-1.1c0-0.1,0-0.3,0.1-0.5c0.1-0.2,0.1-0.3,0.2-0.5c0.1-0.2,0.2-0.3,0.4-0.4
			c0.1-0.1,0.3-0.2,0.5-0.3c-0.4-0.2-0.7-0.4-0.8-0.7C58,94.5,58,94.2,58,93.9c0-0.3,0.1-0.7,0.2-1c0.2-0.3,0.4-0.6,0.7-0.8
			c0.3-0.2,0.6-0.4,1-0.6c0.4-0.1,0.9-0.2,1.4-0.2c0.6,0,1.2,0.1,1.7,0.3c0.5,0.2,1,0.5,1.4,1l-1.3,1.5c-0.3-0.3-0.5-0.5-0.9-0.6
			c-0.3-0.1-0.6-0.2-0.9-0.2c-0.2,0-0.3,0-0.5,0.1c-0.2,0-0.3,0.1-0.4,0.2c-0.1,0.1-0.2,0.1-0.3,0.2C60,93.8,60,93.9,60,94.1
			c0,0.2,0.1,0.3,0.3,0.5c0.2,0.2,0.5,0.2,0.9,0.2h1.3v1.6h-1.4c-0.4,0-0.7,0.1-0.9,0.2c-0.2,0.2-0.3,0.4-0.3,0.6
			c0,0.2,0.1,0.4,0.4,0.5c0.2,0.2,0.6,0.3,1.1,0.3c0.3,0,0.6-0.1,0.9-0.2c0.3-0.1,0.6-0.3,0.9-0.7l1.3,1.5
			C64,99.1,63.5,99.4,63,99.6z M61.3,90.6h-1.6l1.6-2.5h2.5L61.3,90.6z"/>
		<path class="st1" d="M74.2,98c-0.2,0.4-0.5,0.8-0.8,1c-0.3,0.3-0.7,0.5-1.1,0.6c-0.4,0.1-0.8,0.2-1.3,0.2v3.2h-2V100
			c-0.4,0-0.9-0.1-1.3-0.2c-0.4-0.1-0.8-0.4-1.1-0.6c-0.3-0.3-0.6-0.6-0.8-1c-0.2-0.4-0.3-0.9-0.3-1.4v-5.2h2v4.8
			c0,0.3,0,0.6,0.1,0.8c0.1,0.2,0.2,0.4,0.3,0.5c0.1,0.1,0.3,0.2,0.5,0.3c0.2,0.1,0.4,0.1,0.5,0.1v-6.9h2v6.9c0,0,0,0,0,0
			c0.2,0,0.4-0.1,0.6-0.1c0.2-0.1,0.3-0.2,0.5-0.3c0.1-0.1,0.3-0.3,0.3-0.5c0.1-0.2,0.1-0.5,0.1-0.8v-4.8h2v5.2
			C74.5,97.1,74.4,97.6,74.2,98z"/>
		<path class="st1" d="M82.9,96.6c0,0.3-0.1,0.6-0.1,0.8c-0.1,0.2-0.1,0.4-0.2,0.6c-0.1,0.2-0.2,0.4-0.3,0.5
			c-0.7,0.9-1.7,1.4-2.9,1.4c-0.6,0-1.2-0.1-1.7-0.4c-0.5-0.2-0.9-0.6-1.3-1.1c-0.1-0.2-0.2-0.3-0.3-0.5c-0.1-0.2-0.1-0.4-0.2-0.6
			c-0.1-0.2-0.1-0.5-0.1-0.8c0-0.3,0-0.6,0-1c0-0.3,0-0.6,0-0.9c0-0.3,0.1-0.6,0.1-0.9c0.1-0.3,0.2-0.6,0.3-0.8
			c0.2-0.3,0.4-0.5,0.6-0.8c0.3-0.2,0.6-0.4,1-0.6c0.4-0.2,0.9-0.3,1.5-0.3c0.6,0,1.1,0.1,1.5,0.3c0.4,0.2,0.7,0.4,1,0.6
			c0.3,0.2,0.5,0.5,0.6,0.8c0.1,0.3,0.3,0.5,0.3,0.8c0.1,0.3,0.1,0.6,0.1,0.9c0,0.3,0,0.6,0,1C82.9,96,82.9,96.3,82.9,96.6z
			 M80.8,94.6c0-0.2-0.1-0.4-0.2-0.6c-0.1-0.2-0.3-0.4-0.5-0.6c-0.2-0.1-0.5-0.2-0.8-0.2c-0.6,0-1,0.2-1.3,0.7
			c-0.1,0.2-0.2,0.4-0.2,0.7c0,0.2-0.1,0.6-0.1,1c0,0.3,0,0.6,0,0.9c0,0.3,0.1,0.6,0.3,0.8c0.3,0.4,0.7,0.6,1.2,0.6
			c0.2,0,0.4,0,0.6-0.1c0.2-0.1,0.3-0.1,0.4-0.2c0.1-0.1,0.2-0.2,0.3-0.4c0.1-0.2,0.1-0.3,0.2-0.5c0-0.2,0.1-0.4,0.1-0.5
			c0-0.2,0-0.4,0-0.5C80.9,95.2,80.9,94.8,80.8,94.6z"/>
		<path class="st1" d="M90.9,98.1c-0.2,0.4-0.5,0.7-0.8,1c-0.3,0.3-0.7,0.5-1.1,0.6c-0.4,0.2-0.8,0.2-1.3,0.2
			c-0.4,0-0.9-0.1-1.3-0.2c-0.4-0.2-0.8-0.4-1.1-0.6c-0.3-0.3-0.6-0.6-0.8-1c-0.2-0.4-0.3-0.8-0.3-1.3v-5.4h2v5
			c0,0.5,0.1,0.9,0.4,1.2c0.3,0.3,0.6,0.4,1,0.4c0.4,0,0.8-0.1,1-0.4c0.3-0.3,0.4-0.7,0.4-1.2v-5h2v5.4
			C91.2,97.3,91.1,97.7,90.9,98.1z"/>
		<path class="st1" d="M99.5,93.2v4.2c0,0.4,0.1,0.6,0.4,0.6h0.8v1.9h-1c-0.6,0-1.2-0.2-1.6-0.6c-0.4-0.4-0.6-0.9-0.6-1.6v-4.6h-1.6
			v-1.7h5.5v1.7H99.5z"/>
		<path class="st1" d="M108.9,96.6c0,0.3-0.1,0.6-0.1,0.8c-0.1,0.2-0.1,0.4-0.2,0.6c-0.1,0.2-0.2,0.4-0.3,0.5
			c-0.7,0.9-1.7,1.4-2.9,1.4c-0.6,0-1.2-0.1-1.7-0.4c-0.5-0.2-0.9-0.6-1.3-1.1c-0.1-0.2-0.2-0.3-0.3-0.5c-0.1-0.2-0.1-0.4-0.2-0.6
			c-0.1-0.2-0.1-0.5-0.1-0.8c0-0.3,0-0.6,0-1c0-0.3,0-0.6,0-0.9c0-0.3,0.1-0.6,0.1-0.9c0.1-0.3,0.2-0.6,0.3-0.8
			c0.2-0.3,0.4-0.5,0.6-0.8c0.3-0.2,0.6-0.4,1-0.6c0.4-0.2,0.9-0.3,1.5-0.3c0.6,0,1.1,0.1,1.5,0.3c0.4,0.2,0.7,0.4,1,0.6
			c0.3,0.2,0.5,0.5,0.6,0.8c0.1,0.3,0.3,0.5,0.3,0.8c0.1,0.3,0.1,0.6,0.1,0.9c0,0.3,0,0.6,0,1C108.9,96,108.9,96.3,108.9,96.6z
			 M106.8,94.6c0-0.2-0.1-0.4-0.2-0.6c-0.1-0.2-0.3-0.4-0.5-0.6c-0.2-0.1-0.5-0.2-0.8-0.2c-0.6,0-1,0.2-1.3,0.7
			c-0.1,0.2-0.2,0.4-0.2,0.7c0,0.2-0.1,0.6-0.1,1c0,0.3,0,0.6,0,0.9c0,0.3,0.1,0.6,0.3,0.8c0.3,0.4,0.7,0.6,1.2,0.6
			c0.2,0,0.4,0,0.6-0.1c0.2-0.1,0.3-0.1,0.4-0.2c0.1-0.1,0.2-0.2,0.3-0.4c0.1-0.2,0.1-0.3,0.2-0.5c0-0.2,0.1-0.4,0.1-0.5
			c0-0.2,0-0.4,0-0.5C106.9,95.2,106.9,94.8,106.8,94.6z"/>
		<path class="st1" d="M115.2,99.9v-6.6h-2.9v6.6h-2v-8.5h6.9v8.5H115.2z"/>
		<path class="st1" d="M121.2,99.9c-0.3,0-0.6,0-0.9-0.1c-0.3-0.1-0.5-0.2-0.7-0.4c-0.2-0.2-0.4-0.4-0.5-0.7c-0.1-0.3-0.2-0.6-0.2-1
			v-6.3h2v5.9c0,0.3,0.1,0.5,0.2,0.6c0.2,0.1,0.3,0.1,0.5,0.1h0.5v1.8H121.2z"/>
		<path class="st1" d="M128.6,99.9l-2.4-3.6l-1.1,1.2v2.4h-2v-8.4h2v3.2l0.1,0l2.9-3.2h2.5l-3,3.3l3.3,5.1H128.6z"/>
		<path class="st1" d="M136.1,99.9v-0.7c-0.3,0.3-0.6,0.5-0.9,0.6c-0.3,0.1-0.7,0.2-1,0.2c-0.6,0-1.2-0.1-1.6-0.4
			c-0.4-0.3-0.7-0.6-0.9-1c-0.2-0.4-0.4-0.8-0.4-1.3c-0.1-0.5-0.1-1-0.1-1.4c0-0.5,0-1,0.1-1.5c0.1-0.5,0.2-1,0.4-1.5
			c0.2-0.4,0.5-0.8,0.9-1.1c0.4-0.3,0.9-0.4,1.6-0.4c0.4,0,0.7,0.1,1.1,0.2c0.3,0.1,0.6,0.3,0.9,0.6l0-0.7h2v8.5H136.1z M136.1,94.9
			c0-0.3-0.1-0.5-0.2-0.8c-0.1-0.2-0.2-0.4-0.4-0.6s-0.4-0.2-0.8-0.2c-0.3,0-0.6,0.1-0.8,0.2c-0.2,0.1-0.3,0.3-0.4,0.6
			c-0.1,0.2-0.1,0.5-0.2,0.8c0,0.3,0,0.5,0,0.8c0,0.3,0,0.5,0,0.8c0,0.3,0.1,0.5,0.2,0.8c0.1,0.2,0.2,0.4,0.4,0.6
			c0.2,0.1,0.5,0.2,0.8,0.2c0.3,0,0.6-0.1,0.8-0.2c0.2-0.1,0.3-0.3,0.4-0.6c0.1-0.2,0.2-0.5,0.2-0.8c0-0.3,0-0.5,0-0.8
			C136.1,95.4,136.1,95.2,136.1,94.9z M135,90.6h-1.7l1.7-2.5h2.5L135,90.6z"/>
	</g>
	<g>
		<path class="st4" d="M150.4,97c0,0.3-0.1,0.6-0.1,0.8c-0.1,0.2-0.1,0.4-0.2,0.6c-0.1,0.2-0.2,0.4-0.3,0.5
			c-0.7,0.9-1.7,1.4-2.9,1.4c-0.6,0-1.2-0.1-1.7-0.4c-0.5-0.2-0.9-0.6-1.3-1.1c-0.1-0.2-0.2-0.3-0.3-0.5c-0.1-0.2-0.1-0.4-0.2-0.6
			c-0.1-0.2-0.1-0.5-0.1-0.8c0-0.3,0-0.6,0-1c0-0.3,0-0.6,0-0.9c0-0.3,0.1-0.6,0.1-0.9c0.1-0.3,0.2-0.6,0.3-0.8
			c0.2-0.3,0.4-0.5,0.6-0.8c0.3-0.2,0.6-0.4,1-0.6c0.4-0.2,0.9-0.3,1.5-0.3c0.6,0,1.1,0.1,1.5,0.3c0.4,0.2,0.7,0.4,1,0.6
			c0.3,0.2,0.5,0.5,0.6,0.8c0.1,0.3,0.3,0.5,0.3,0.8c0.1,0.3,0.1,0.6,0.1,0.9c0,0.3,0,0.6,0,1C150.4,96.4,150.4,96.7,150.4,97z
			 M148.4,94.9c0-0.2-0.1-0.4-0.2-0.6c-0.1-0.2-0.3-0.4-0.5-0.6c-0.2-0.1-0.5-0.2-0.8-0.2c-0.6,0-1,0.2-1.3,0.7
			c-0.1,0.2-0.2,0.4-0.2,0.7c0,0.2-0.1,0.6-0.1,1c0,0.3,0,0.6,0,0.9c0,0.3,0.1,0.6,0.3,0.8c0.3,0.4,0.7,0.6,1.2,0.6
			c0.2,0,0.4,0,0.6-0.1c0.2-0.1,0.3-0.1,0.4-0.2c0.1-0.1,0.2-0.2,0.3-0.4c0.1-0.2,0.1-0.3,0.2-0.5c0-0.2,0.1-0.4,0.1-0.5
			c0-0.2,0-0.4,0-0.5C148.4,95.5,148.4,95.2,148.4,94.9z"/>
		<path class="st4" d="M158.4,93.5v4.2c0,0.4,0.1,0.6,0.4,0.6h0.8v1.9h-1c-0.6,0-1.2-0.2-1.6-0.6c-0.4-0.4-0.6-0.9-0.6-1.6v-4.6
			h-1.6v-1.7h5.5v1.7H158.4z"/>
		<path class="st4" d="M167.8,97c0,0.3-0.1,0.6-0.1,0.8c-0.1,0.2-0.1,0.4-0.2,0.6c-0.1,0.2-0.2,0.4-0.3,0.5
			c-0.7,0.9-1.7,1.4-2.9,1.4c-0.6,0-1.2-0.1-1.7-0.4c-0.5-0.2-0.9-0.6-1.3-1.1c-0.1-0.2-0.2-0.3-0.3-0.5c-0.1-0.2-0.1-0.4-0.2-0.6
			c-0.1-0.2-0.1-0.5-0.1-0.8c0-0.3,0-0.6,0-1c0-0.3,0-0.6,0-0.9c0-0.3,0.1-0.6,0.1-0.9c0.1-0.3,0.2-0.6,0.3-0.8
			c0.2-0.3,0.4-0.5,0.6-0.8c0.3-0.2,0.6-0.4,1-0.6c0.4-0.2,0.9-0.3,1.5-0.3c0.6,0,1.1,0.1,1.4,0.3c0.4,0.2,0.7,0.4,1,0.6
			c0.3,0.2,0.5,0.5,0.6,0.8c0.2,0.3,0.3,0.5,0.3,0.8c0.1,0.3,0.1,0.6,0.1,0.9c0,0.3,0,0.6,0,0.9C167.8,96.4,167.8,96.7,167.8,97z
			 M165.7,94.9c0-0.2-0.1-0.4-0.2-0.6c-0.1-0.2-0.3-0.4-0.5-0.6c-0.2-0.1-0.5-0.2-0.8-0.2c-0.6,0-1,0.2-1.3,0.7
			c-0.1,0.2-0.2,0.4-0.2,0.7c0,0.3-0.1,0.6-0.1,1c0,0.3,0,0.6,0,0.9c0,0.3,0.1,0.6,0.3,0.8c0.3,0.4,0.7,0.6,1.2,0.6
			c0.4,0,0.7-0.1,1-0.4c0.1-0.1,0.2-0.2,0.3-0.4c0.1-0.2,0.1-0.3,0.2-0.5c0-0.2,0.1-0.4,0.1-0.5c0-0.2,0-0.4,0-0.5
			C165.8,95.5,165.7,95.2,165.7,94.9z M164.5,90.9h-1.6l1.7-2.5h2.5L164.5,90.9z"/>
		<path class="st4" d="M174,100.2v-6.6h-2.9v6.6h-2v-8.5h6.9v8.5H174z"/>
		<path class="st4" d="M184.5,97c0,0.3-0.1,0.6-0.1,0.8c-0.1,0.2-0.1,0.4-0.2,0.6c-0.1,0.2-0.2,0.4-0.3,0.5
			c-0.7,0.9-1.7,1.4-2.9,1.4c-0.6,0-1.2-0.1-1.7-0.4c-0.5-0.2-0.9-0.6-1.3-1.1c-0.1-0.2-0.2-0.3-0.3-0.5c-0.1-0.2-0.1-0.4-0.2-0.6
			c-0.1-0.2-0.1-0.5-0.1-0.8c0-0.3,0-0.6,0-1c0-0.3,0-0.6,0-0.9c0-0.3,0.1-0.6,0.1-0.9c0.1-0.3,0.2-0.6,0.3-0.8
			c0.2-0.3,0.4-0.5,0.6-0.8c0.3-0.2,0.6-0.4,1-0.6c0.4-0.2,0.9-0.3,1.5-0.3c0.6,0,1.1,0.1,1.5,0.3c0.4,0.2,0.7,0.4,1,0.6
			c0.3,0.2,0.5,0.5,0.6,0.8c0.1,0.3,0.3,0.5,0.3,0.8c0.1,0.3,0.1,0.6,0.1,0.9c0,0.3,0,0.6,0,1C184.5,96.4,184.5,96.7,184.5,97z
			 M182.5,94.9c0-0.2-0.1-0.4-0.2-0.6c-0.1-0.2-0.3-0.4-0.5-0.6c-0.2-0.1-0.5-0.2-0.8-0.2c-0.6,0-1,0.2-1.3,0.7
			c-0.1,0.2-0.2,0.4-0.2,0.7c0,0.2-0.1,0.6-0.1,1c0,0.3,0,0.6,0,0.9c0,0.3,0.1,0.6,0.3,0.8c0.3,0.4,0.7,0.6,1.2,0.6
			c0.2,0,0.4,0,0.6-0.1c0.2-0.1,0.3-0.1,0.4-0.2c0.1-0.1,0.2-0.2,0.3-0.4c0.1-0.2,0.1-0.3,0.2-0.5c0-0.2,0.1-0.4,0.1-0.5
			c0-0.2,0-0.4,0-0.5C182.5,95.5,182.5,95.2,182.5,94.9z"/>
		<path class="st4" d="M190.6,99c0.6,0.2,1,0.5,1.1,0.9c0.2,0.4,0.2,0.7,0.2,1.1c-0.1,0.4-0.2,0.8-0.4,1.2c-0.2,0.4-0.4,0.8-0.6,1.2
			l-1.8-0.8l0.4-0.9c0.1-0.2,0.2-0.4,0.2-0.5c0-0.1,0-0.2,0-0.3c0-0.1-0.1-0.2-0.2-0.3c-0.1-0.1-0.3-0.2-0.5-0.3
			c-0.1-0.1-0.2-0.1-0.3-0.1c-0.1,0-0.2-0.1-0.2-0.1c-0.1,0-0.1-0.1-0.2-0.1c-0.1,0-0.2-0.1-0.3-0.1c-0.4-0.2-0.8-0.4-1.1-0.7
			c-0.3-0.2-0.5-0.5-0.7-0.9c-0.2-0.3-0.3-0.7-0.3-1.1c-0.1-0.4-0.1-0.9-0.1-1.4c0-0.8,0.1-1.4,0.3-2c0.2-0.5,0.5-1,0.9-1.3
			c0.4-0.3,0.8-0.6,1.2-0.8c0.5-0.2,0.9-0.2,1.4-0.2c0.6,0,1.1,0.1,1.6,0.3c0.5,0.2,0.9,0.5,1.3,0.9l-1.3,1.5
			c-0.5-0.5-1-0.8-1.5-0.8c-0.6,0-1.1,0.2-1.4,0.5c-0.3,0.4-0.5,1-0.5,1.8c0,0.2,0,0.5,0,0.7c0,0.2,0.1,0.4,0.2,0.6
			c0.1,0.2,0.2,0.4,0.3,0.5c0.1,0.1,0.3,0.3,0.6,0.4L190.6,99z"/>
		<path class="st4" d="M203.1,93.5c0.3,0.3,0.5,0.7,0.5,1.2c0.1,0.5,0.1,0.9,0.1,1.4c0,0.4,0,0.7,0,1c0,0.3-0.1,0.5-0.1,0.8
			c-0.1,0.2-0.1,0.4-0.2,0.6c-0.1,0.2-0.2,0.4-0.3,0.5c-0.7,0.9-1.7,1.4-2.9,1.4c-1.3,0-2.2-0.5-2.9-1.5c-0.2-0.3-0.4-0.7-0.5-1.1
			c-0.1-0.4-0.1-1-0.1-1.7c0-0.3,0-0.6,0-0.9c0-0.3,0.1-0.6,0.1-0.9c0.1-0.3,0.2-0.6,0.3-0.8c0.2-0.3,0.4-0.5,0.6-0.8
			c0.3-0.2,0.6-0.4,1-0.6c0.4-0.2,0.9-0.3,1.5-0.3h4.1v1.7H203.1z M201.6,95c0-0.2-0.1-0.4-0.2-0.6c-0.1-0.2-0.3-0.4-0.5-0.5
			c-0.2-0.1-0.5-0.2-0.8-0.2c-0.6,0-1,0.2-1.3,0.7c-0.1,0.2-0.2,0.4-0.2,0.7c0,0.2,0,0.6,0,1c0,0.3,0,0.6,0,0.9
			c0,0.3,0.1,0.6,0.3,0.8c0.3,0.4,0.7,0.6,1.2,0.6c0.2,0,0.4,0,0.6-0.1s0.3-0.1,0.4-0.2c0.3-0.2,0.4-0.5,0.5-0.9
			c0-0.4,0.1-0.7,0.1-1.1C201.7,95.6,201.7,95.2,201.6,95z"/>
		<path class="st4" d="M212,97c0,0.3-0.1,0.6-0.1,0.8c-0.1,0.2-0.1,0.4-0.2,0.6c-0.1,0.2-0.2,0.4-0.3,0.5c-0.7,0.9-1.7,1.4-2.9,1.4
			c-0.6,0-1.2-0.1-1.7-0.4c-0.5-0.2-0.9-0.6-1.3-1.1c-0.1-0.2-0.2-0.3-0.3-0.5c-0.1-0.2-0.1-0.4-0.2-0.6c-0.1-0.2-0.1-0.5-0.1-0.8
			c0-0.3,0-0.6,0-1c0-0.3,0-0.6,0-0.9c0-0.3,0.1-0.6,0.1-0.9c0.1-0.3,0.2-0.6,0.3-0.8c0.2-0.3,0.4-0.5,0.6-0.8
			c0.3-0.2,0.6-0.4,1-0.6c0.4-0.2,0.9-0.3,1.5-0.3c0.6,0,1.1,0.1,1.5,0.3c0.4,0.2,0.7,0.4,1,0.6c0.3,0.2,0.5,0.5,0.6,0.8
			c0.1,0.3,0.3,0.5,0.3,0.8c0.1,0.3,0.1,0.6,0.1,0.9c0,0.3,0,0.6,0,1C212,96.4,212,96.7,212,97z M209.9,94.9c0-0.2-0.1-0.4-0.2-0.6
			c-0.1-0.2-0.3-0.4-0.5-0.6c-0.2-0.1-0.5-0.2-0.8-0.2c-0.6,0-1,0.2-1.3,0.7c-0.1,0.2-0.2,0.4-0.2,0.7c0,0.2-0.1,0.6-0.1,1
			c0,0.3,0,0.6,0,0.9c0,0.3,0.1,0.6,0.3,0.8c0.3,0.4,0.7,0.6,1.2,0.6c0.2,0,0.4,0,0.6-0.1c0.2-0.1,0.3-0.1,0.4-0.2
			c0.1-0.1,0.2-0.2,0.3-0.4c0.1-0.2,0.1-0.3,0.2-0.5c0-0.2,0.1-0.4,0.1-0.5c0-0.2,0-0.4,0-0.5C210,95.5,210,95.2,209.9,94.9z"/>
		<path class="st4" d="M220,98.5c-0.2,0.4-0.5,0.7-0.8,1c-0.3,0.3-0.7,0.5-1.1,0.6c-0.4,0.2-0.8,0.2-1.3,0.2c-0.4,0-0.9-0.1-1.3-0.2
			c-0.4-0.2-0.8-0.4-1.1-0.6c-0.3-0.3-0.6-0.6-0.8-1c-0.2-0.4-0.3-0.8-0.3-1.3v-5.4h2v5c0,0.5,0.1,0.9,0.4,1.2
			c0.3,0.3,0.6,0.4,1,0.4c0.4,0,0.8-0.1,1-0.4c0.3-0.3,0.4-0.7,0.4-1.2v-5h2v5.4C220.3,97.6,220.2,98.1,220,98.5z"/>
		<path class="st4" d="M230.7,100c-0.6,0.2-1.2,0.3-1.8,0.3c-0.5,0-0.9-0.1-1.3-0.2c-0.4-0.1-0.8-0.3-1.1-0.6
			c-0.3-0.2-0.5-0.5-0.7-0.9c-0.2-0.3-0.3-0.7-0.3-1.1c0-0.1,0-0.3,0.1-0.5c0.1-0.2,0.1-0.3,0.2-0.5c0.1-0.2,0.2-0.3,0.4-0.4
			c0.1-0.1,0.3-0.2,0.5-0.3c-0.4-0.2-0.7-0.4-0.8-0.7c-0.1-0.3-0.2-0.6-0.2-0.9c0-0.3,0.1-0.7,0.2-1c0.2-0.3,0.4-0.6,0.7-0.8
			c0.3-0.2,0.6-0.4,1-0.6c0.4-0.1,0.9-0.2,1.4-0.2c0.6,0,1.2,0.1,1.7,0.3c0.5,0.2,1,0.5,1.4,1l-1.3,1.5c-0.3-0.3-0.5-0.5-0.9-0.6
			c-0.3-0.1-0.6-0.2-0.9-0.2c-0.2,0-0.3,0-0.5,0.1c-0.2,0-0.3,0.1-0.4,0.2c-0.1,0.1-0.2,0.2-0.3,0.2c-0.1,0.1-0.1,0.2-0.1,0.3
			c0,0.2,0.1,0.4,0.3,0.5c0.2,0.2,0.5,0.2,0.9,0.2h1.3v1.6h-1.4c-0.4,0-0.7,0.1-0.9,0.2c-0.2,0.2-0.3,0.4-0.3,0.6
			c0,0.2,0.1,0.4,0.4,0.5c0.2,0.2,0.6,0.2,1.1,0.2c0.3,0,0.6-0.1,0.9-0.2c0.3-0.1,0.6-0.3,0.9-0.6l1.3,1.5
			C231.8,99.4,231.3,99.8,230.7,100z"/>
		<path class="st4" d="M234.5,91h-1.7l1.7-2.5h2.5L234.5,91z M235.5,100.2c-0.3,0-0.6,0-0.9-0.1c-0.3-0.1-0.5-0.2-0.7-0.4
			c-0.2-0.2-0.4-0.4-0.5-0.7c-0.1-0.3-0.2-0.6-0.2-1v-6.3h2v5.9c0,0.3,0.1,0.5,0.2,0.6c0.2,0.1,0.3,0.1,0.5,0.1h0.5v1.8H235.5z"/>
		<path class="st4" d="M243.4,93.5c0.3,0.3,0.5,0.7,0.5,1.2c0.1,0.5,0.1,0.9,0.1,1.4c0,0.4,0,0.7,0,1c0,0.3-0.1,0.5-0.1,0.8
			c-0.1,0.2-0.1,0.4-0.2,0.6c-0.1,0.2-0.2,0.4-0.3,0.5c-0.7,0.9-1.7,1.4-2.9,1.4c-1.3,0-2.2-0.5-2.9-1.5c-0.2-0.3-0.4-0.7-0.5-1.1
			c-0.1-0.4-0.1-1-0.1-1.7c0-0.3,0-0.6,0-0.9c0-0.3,0.1-0.6,0.1-0.9c0.1-0.3,0.2-0.6,0.3-0.8c0.2-0.3,0.4-0.5,0.6-0.8
			c0.3-0.2,0.6-0.4,1-0.6c0.4-0.2,0.9-0.3,1.5-0.3h4.1v1.7H243.4z M242,95c0-0.2-0.1-0.4-0.2-0.6c-0.1-0.2-0.3-0.4-0.5-0.5
			c-0.2-0.1-0.5-0.2-0.8-0.2c-0.6,0-1,0.2-1.3,0.7c-0.1,0.2-0.2,0.4-0.2,0.7c0,0.2,0,0.6,0,1c0,0.3,0,0.6,0,0.9
			c0,0.3,0.1,0.6,0.3,0.8c0.3,0.4,0.7,0.6,1.2,0.6c0.2,0,0.4,0,0.6-0.1c0.2-0.1,0.3-0.1,0.4-0.2c0.3-0.2,0.4-0.5,0.5-0.9
			c0-0.4,0.1-0.7,0.1-1.1C242,95.6,242,95.2,242,95z"/>
		<path class="st4" d="M250.3,100.2v-0.7c-0.3,0.3-0.6,0.5-0.9,0.6c-0.3,0.1-0.7,0.2-1.1,0.2c-0.6,0-1.2-0.1-1.6-0.4
			c-0.4-0.3-0.7-0.6-0.9-1c-0.2-0.4-0.4-0.8-0.4-1.3c-0.1-0.5-0.1-1-0.1-1.4c0-0.5,0-1,0.1-1.5c0.1-0.5,0.2-1,0.4-1.5
			c0.2-0.4,0.5-0.8,0.9-1.1c0.4-0.3,0.9-0.4,1.6-0.4c0.4,0,0.7,0.1,1.1,0.2c0.3,0.1,0.6,0.3,0.9,0.6l0-0.7h2v8.5H250.3z M250.3,95.2
			c0-0.3-0.1-0.5-0.2-0.8c-0.1-0.2-0.2-0.4-0.4-0.6c-0.2-0.2-0.5-0.2-0.8-0.2c-0.3,0-0.6,0.1-0.8,0.2c-0.2,0.1-0.3,0.3-0.4,0.6
			c-0.1,0.2-0.2,0.5-0.2,0.8c0,0.3,0,0.5,0,0.8c0,0.3,0,0.5,0,0.8c0,0.3,0.1,0.5,0.2,0.8c0.1,0.2,0.2,0.4,0.4,0.6s0.5,0.2,0.8,0.2
			c0.3,0,0.6-0.1,0.8-0.2c0.2-0.1,0.3-0.3,0.4-0.6c0.1-0.2,0.2-0.5,0.2-0.8c0-0.3,0-0.5,0-0.8C250.3,95.8,250.3,95.5,250.3,95.2z"/>
		<path class="st4" d="M256.3,100.2c-0.3,0-0.6,0-0.9-0.1c-0.3-0.1-0.5-0.2-0.7-0.4c-0.2-0.2-0.4-0.4-0.5-0.7
			c-0.1-0.3-0.2-0.6-0.2-1v-6.3h2v5.9c0,0.3,0.1,0.5,0.2,0.6c0.2,0.1,0.3,0.1,0.5,0.1h0.5v1.8H256.3z"/>
		<path class="st4" d="M266.8,100c-0.6,0.2-1.2,0.3-1.8,0.3c-0.5,0-0.9-0.1-1.3-0.2c-0.4-0.1-0.8-0.3-1.1-0.6
			c-0.3-0.2-0.5-0.5-0.7-0.9c-0.2-0.3-0.3-0.7-0.3-1.1c0-0.1,0-0.3,0.1-0.5c0.1-0.2,0.1-0.3,0.2-0.5c0.1-0.2,0.2-0.3,0.4-0.4
			c0.1-0.1,0.3-0.2,0.5-0.3c-0.4-0.2-0.7-0.4-0.8-0.7c-0.1-0.3-0.2-0.6-0.2-0.9c0-0.3,0.1-0.7,0.2-1c0.2-0.3,0.4-0.6,0.7-0.8
			c0.3-0.2,0.6-0.4,1-0.6c0.4-0.1,0.9-0.2,1.4-0.2c0.6,0,1.2,0.1,1.7,0.3c0.5,0.2,1,0.5,1.4,1l-1.3,1.5c-0.3-0.3-0.5-0.5-0.9-0.6
			c-0.3-0.1-0.6-0.2-0.9-0.2c-0.2,0-0.3,0-0.5,0.1c-0.2,0-0.3,0.1-0.4,0.2c-0.1,0.1-0.2,0.2-0.3,0.2c-0.1,0.1-0.1,0.2-0.1,0.3
			c0,0.2,0.1,0.4,0.3,0.5s0.5,0.2,0.9,0.2h1.3v1.6H265c-0.4,0-0.7,0.1-0.9,0.2c-0.2,0.2-0.3,0.4-0.3,0.6c0,0.2,0.1,0.4,0.4,0.5
			c0.2,0.2,0.6,0.2,1.1,0.2c0.3,0,0.6-0.1,0.9-0.2c0.3-0.1,0.6-0.3,0.9-0.6l1.3,1.5C267.9,99.4,267.4,99.8,266.8,100z"/>
		<path class="st4" d="M275.4,93.5c0.3,0.3,0.5,0.7,0.5,1.2c0.1,0.5,0.1,0.9,0.1,1.4c0,0.4,0,0.7,0,1c0,0.3-0.1,0.5-0.1,0.8
			c-0.1,0.2-0.1,0.4-0.2,0.6c-0.1,0.2-0.2,0.4-0.3,0.5c-0.7,0.9-1.7,1.4-2.9,1.4c-1.3,0-2.2-0.5-2.9-1.5c-0.2-0.3-0.4-0.7-0.5-1.1
			c-0.1-0.4-0.1-1-0.1-1.7c0-0.3,0-0.6,0-0.9c0-0.3,0.1-0.6,0.1-0.9c0.1-0.3,0.2-0.6,0.3-0.8c0.2-0.3,0.4-0.5,0.6-0.8
			c0.3-0.2,0.6-0.4,1-0.6c0.4-0.2,0.9-0.3,1.5-0.3h4.1v1.7H275.4z M273.9,95c0-0.2-0.1-0.4-0.2-0.6c-0.1-0.2-0.3-0.4-0.5-0.5
			c-0.2-0.1-0.5-0.2-0.8-0.2c-0.6,0-1,0.2-1.3,0.7c-0.1,0.2-0.2,0.4-0.2,0.7c0,0.2,0,0.6,0,1c0,0.3,0,0.6,0,0.9
			c0,0.3,0.1,0.6,0.3,0.8c0.3,0.4,0.7,0.6,1.2,0.6c0.2,0,0.4,0,0.6-0.1c0.2-0.1,0.3-0.1,0.4-0.2c0.3-0.2,0.4-0.5,0.5-0.9
			c0-0.4,0.1-0.7,0.1-1.1C274,95.6,273.9,95.2,273.9,95z"/>
		<path class="st4" d="M284.2,98.5c-0.2,0.4-0.5,0.7-0.8,1c-0.3,0.3-0.7,0.5-1.1,0.6c-0.4,0.2-0.8,0.2-1.3,0.2
			c-0.4,0-0.9-0.1-1.3-0.2c-0.4-0.2-0.8-0.4-1.1-0.6c-0.3-0.3-0.6-0.6-0.8-1c-0.2-0.4-0.3-0.8-0.3-1.3v-5.4h2v5
			c0,0.5,0.1,0.9,0.4,1.2c0.3,0.3,0.6,0.4,1,0.4s0.8-0.1,1-0.4c0.3-0.3,0.4-0.7,0.4-1.2v-5h2v5.4C284.5,97.7,284.4,98.1,284.2,98.5z
			 M281.2,90.9h-1.6l1.6-2.5h2.5L281.2,90.9z"/>
		<path class="st4" d="M286.5,100.2v-1.9h2v1.9H286.5z M288.4,97.3h-1.8l-0.1-8.8h2L288.4,97.3z"/>
	</g>
	<g>
		<path d="M242.5,72.9c0.5,0.3,1.2,0.6,2,0.6c1.1,0,1.8-0.6,1.8-1.4c0-0.8-0.4-1.2-1.6-1.7c-1.4-0.5-2.2-1.2-2.2-2.4
			c0-1.3,1.1-2.3,2.7-2.3c0.9,0,1.5,0.2,1.9,0.4l-0.3,0.9c-0.3-0.2-0.8-0.4-1.6-0.4c-1.2,0-1.6,0.7-1.6,1.3c0,0.8,0.5,1.2,1.7,1.6
			c1.4,0.5,2.2,1.2,2.2,2.5c0,1.3-1,2.4-3,2.4c-0.8,0-1.7-0.2-2.2-0.5L242.5,72.9z"/>
		<path d="M253.8,72.6c0,0.6,0,1.2,0,1.7h-1l-0.1-1h0c-0.3,0.5-0.9,1.1-2,1.1c-1,0-2.1-0.5-2.1-2.7v-3.5h1.1v3.4
			c0,1.2,0.4,1.9,1.4,1.9c0.7,0,1.3-0.5,1.5-1c0.1-0.2,0.1-0.4,0.1-0.6v-3.7h1.1V72.6z"/>
		<path d="M255.7,70.2c0-0.8,0-1.4,0-2h1l0,1h0c0.4-0.7,1.2-1.2,2.2-1.2c1.5,0,2.6,1.2,2.6,3.1c0,2.2-1.3,3.3-2.8,3.3
			c-0.8,0-1.5-0.4-1.9-1h0v3.3h-1.1V70.2z M256.7,71.8c0,0.2,0,0.3,0,0.5c0.2,0.8,0.9,1.3,1.7,1.3c1.2,0,1.8-1,1.8-2.3
			c0-1.2-0.6-2.3-1.8-2.3c-0.8,0-1.5,0.5-1.7,1.4c0,0.1-0.1,0.3-0.1,0.5V71.8z"/>
		<path d="M263.4,71.4c0,1.5,1,2.1,2.1,2.1c0.8,0,1.3-0.1,1.7-0.3l0.2,0.8c-0.4,0.2-1.1,0.4-2,0.4c-1.9,0-3-1.2-3-3.1
			c0-1.8,1.1-3.3,2.8-3.3c2,0,2.5,1.7,2.5,2.9c0,0.2,0,0.4,0,0.5H263.4z M266.6,70.6c0-0.7-0.3-1.8-1.5-1.8c-1.1,0-1.6,1-1.7,1.8
			H266.6z"/>
		<path d="M269,70.1c0-0.7,0-1.3,0-1.9h1l0,1.2h0c0.3-0.8,0.9-1.3,1.7-1.3c0.1,0,0.2,0,0.3,0v1c-0.1,0-0.2,0-0.4,0
			c-0.8,0-1.3,0.6-1.5,1.4c0,0.2,0,0.3,0,0.5v3.2H269V70.1z"/>
		<path d="M282.9,70.6c-0.1-1.2-0.1-2.6-0.1-3.6h0c-0.3,1-0.6,2-1.1,3.2l-1.5,4.1h-0.8l-1.4-4c-0.4-1.2-0.7-2.3-1-3.3h0
			c0,1.1-0.1,2.5-0.2,3.7l-0.2,3.6h-1l0.6-8.4h1.4l1.4,4.1c0.4,1,0.6,2,0.9,2.8h0c0.2-0.9,0.5-1.8,0.9-2.8l1.5-4.1h1.4l0.5,8.4h-1.1
			L282.9,70.6z"/>
		<path d="M289.3,74.3l-0.1-0.8h0c-0.3,0.5-1,0.9-1.9,0.9c-1.2,0-1.9-0.9-1.9-1.7c0-1.5,1.3-2.3,3.6-2.3v-0.1c0-0.5-0.1-1.4-1.4-1.4
			c-0.6,0-1.2,0.2-1.6,0.5l-0.3-0.7c0.5-0.3,1.2-0.5,2-0.5c1.9,0,2.3,1.3,2.3,2.5v2.3c0,0.5,0,1,0.1,1.5H289.3z M289.1,71.2
			c-1.2,0-2.6,0.2-2.6,1.4c0,0.7,0.5,1.1,1,1.1c0.8,0,1.3-0.5,1.5-1c0-0.1,0.1-0.2,0.1-0.4V71.2z"/>
		<path d="M291.9,70.1c0-0.7,0-1.3,0-1.9h1l0,1.2h0c0.3-0.8,0.9-1.3,1.7-1.3c0.1,0,0.2,0,0.3,0v1c-0.1,0-0.2,0-0.4,0
			c-0.8,0-1.3,0.6-1.5,1.4c0,0.2-0.1,0.3-0.1,0.5v3.2h-1.1V70.1z"/>
		<path d="M297.2,71L297.2,71c0.2-0.2,0.4-0.5,0.6-0.7l1.8-2.1h1.3l-2.3,2.5l2.7,3.6h-1.3l-2.1-2.9l-0.6,0.6v2.3h-1.1v-8.9h1.1V71z"
			/>
		<path d="M302.5,71.4c0,1.5,1,2.1,2.1,2.1c0.8,0,1.3-0.1,1.7-0.3l0.2,0.8c-0.4,0.2-1.1,0.4-2,0.4c-1.9,0-3-1.2-3-3.1
			c0-1.8,1.1-3.3,2.8-3.3c2,0,2.5,1.7,2.5,2.9c0,0.2,0,0.4,0,0.5H302.5z M305.8,70.6c0-0.7-0.3-1.8-1.5-1.8c-1.1,0-1.6,1-1.7,1.8
			H305.8z"/>
		<path d="M309.5,66.5v1.7h1.6V69h-1.6v3.3c0,0.7,0.2,1.2,0.8,1.2c0.3,0,0.5,0,0.6-0.1l0,0.8c-0.2,0.1-0.5,0.2-1,0.2
			c-0.5,0-0.9-0.2-1.2-0.5c-0.3-0.3-0.4-0.9-0.4-1.6V69h-0.9v-0.8h0.9v-1.5L309.5,66.5z"/>
	</g>
</g>
<g>
</g>
<g>
</g>
<g>
</g>
<g>
</g>
<g>
</g>
<g>
</g>
</svg>
